<?xml version="1.0" encoding="utf-8"?>
<svg xmlns="http://www.w3.org/2000/svg" xmlns:xlink="http://www.w3.org/1999/xlink" version="1.1" style="width:0;height:0;position:absolute;overflow:hidden;">
  <defs>
<symbol viewBox="0 0 512 130" preserveAspectRatio="xMidYMid" aria-labelledby="arpsi-logos-linkedin-title" id="si-logos-linkedin"><title id="arpsi-logos-linkedin-title">logo of linkedin</title><path d="M0 19.164h19.987v72.804h37.01v18.443H0V19.164M75.43 17.811c6.153 0 11.146 4.993 11.146 11.14 0 6.157-4.993 11.138-11.146 11.138-6.145 0-11.138-4.981-11.138-11.138 0-6.147 4.993-11.14 11.138-11.14zm-9.606 30.74h19.213v61.837H65.824V48.55zM95.662 48.558h18.442v8.452h.256c2.56-4.865 8.837-9.985 18.186-9.985 19.469 0 23.054 12.803 23.054 29.45v33.913h-19.212V80.322c0-7.176-.132-16.395-9.994-16.395-9.987 0-11.52 7.816-11.52 15.88v30.58H95.661V48.559M165.344 19.158h19.205v54.535l21.757-25.17h23.547l-25.198 28.63 24.67 33.258h-24.143L184.8 79.844h-.251v30.567h-19.205V19.158" fill="#1A1918"/><path d="M286.552 99.68c-6.153 7.816-16.262 12.302-26.256 12.302-19.207 0-34.577-12.814-34.577-32.664s15.37-32.654 34.577-32.654c17.94 0 29.204 12.804 29.204 32.654v6.02H244.93c1.526 7.3 7.04 12.04 14.47 12.04 6.278 0 10.501-3.203 13.705-7.56l13.446 9.862zM270.29 72.278c.126-6.405-4.868-11.783-11.79-11.783-8.45 0-13.062 5.764-13.569 11.783h25.36zM362.567 110.377h-17.68v-8.2h-.249c-2.955 4.482-10.376 9.736-19.088 9.736-18.448 0-30.613-13.315-30.613-32.144 0-17.293 10.758-33.173 28.43-33.173 7.947 0 15.375 2.176 19.73 8.194h.253V19.158h19.217v91.219zM329.51 63.502c-9.598 0-15.36 6.41-15.36 15.75 0 9.36 5.762 15.755 15.36 15.755 9.615 0 15.377-6.395 15.377-15.754 0-9.341-5.762-15.75-15.377-15.75z" fill="#1A1918"/><path d="M501.764 0H391.343c-5.277 0-9.564 4.182-9.564 9.34v110.885c0 5.161 4.287 9.35 9.564 9.35h110.42c5.286 0 9.593-4.189 9.593-9.35V9.339c0-5.157-4.307-9.339-9.592-9.339" fill="#006087"/><path d="M410.603 17.839c6.146 0 11.138 4.993 11.138 11.14 0 6.151-4.992 11.146-11.138 11.146-6.158 0-11.144-4.995-11.144-11.146 0-6.147 4.986-11.14 11.144-11.14zm-9.613 30.739h19.219v61.837H400.99V48.578zM432.263 48.578h18.436v8.448h.256c2.565-4.86 8.834-9.987 18.184-9.987 19.461 0 23.054 12.807 23.054 29.457v33.919h-19.205V80.344c0-7.175-.132-16.398-9.987-16.398-10.002 0-11.533 7.812-11.533 15.878v30.59h-19.205V48.579" fill="#FFF"/></symbol>
<symbol viewBox="0 0 256 209" preserveAspectRatio="xMidYMid" aria-labelledby="bewsi-logos-twitter-title" id="si-logos-twitter"><title id="bewsi-logos-twitter-title">logo of twitter</title><path d="M256 25.45c-9.42 4.177-19.542 7-30.166 8.27 10.845-6.5 19.172-16.793 23.093-29.057a105.183 105.183 0 0 1-33.351 12.745C205.995 7.201 192.346.822 177.239.822c-29.006 0-52.523 23.516-52.523 52.52 0 4.117.465 8.125 1.36 11.97-43.65-2.191-82.35-23.1-108.255-54.876-4.52 7.757-7.11 16.78-7.11 26.404 0 18.222 9.273 34.297 23.365 43.716a52.312 52.312 0 0 1-23.79-6.57c-.003.22-.003.44-.003.661 0 25.447 18.104 46.675 42.13 51.5a52.592 52.592 0 0 1-23.718.9c6.683 20.866 26.08 36.05 49.062 36.475-17.975 14.086-40.622 22.483-65.228 22.483-4.24 0-8.42-.249-12.529-.734 23.243 14.902 50.85 23.597 80.51 23.597 96.607 0 149.434-80.031 149.434-149.435 0-2.278-.05-4.543-.152-6.795A106.748 106.748 0 0 0 256 25.45" fill="#55acee"/></symbol>
<symbol viewBox="0 0 640.0180053710938 520.3389892578125" aria-labelledby="dnsi-zocial-twitter-title" id="si-zocial-twitter"><title id="dnsi-zocial-twitter-title">icon twitter</title><path d="M0 461.54c10.42 1.014 20.826 1.548 31.22 1.548 61.048 0 115.528-18.732 163.387-56.17-28.424-.352-53.933-9.041-76.477-26.043-22.57-16.99-37.984-38.675-46.323-65.056 6.933 1.418 15.102 2.095 24.456 2.095 12.15 0 23.766-1.575 34.862-4.684-30.517-5.866-55.766-20.891-75.709-44.996-19.955-24.13-29.919-51.969-29.919-83.527v-1.574c18.395 10.42 38.31 15.805 59.826 16.13-18.016-11.798-32.338-27.304-42.915-46.57-10.575-19.24-15.87-40.13-15.87-62.675 0-23.597 6.088-45.607 18.212-66.095 32.6 40.586 72.418 72.938 119.431 97.055 47 24.092 97.368 37.53 151.158 40.327-2.432-11.448-3.655-21.516-3.655-30.18 0-36.085 12.84-66.954 38.505-92.62C375.868 12.839 406.893 0 443.342 0c37.79 0 69.7 13.88 95.73 41.64 30.167-6.257 57.926-17.015 83.255-32.261-9.718 31.558-28.815 55.845-57.238 72.847 25.327-3.109 50.304-10.055 74.929-20.813-16.651 26.017-38.336 48.742-65.056 68.151v17.198c0 34.992-5.125 70.128-15.35 105.355-10.211 35.214-25.848 68.853-46.83 100.972-20.996 32.065-46.05 60.619-75.189 85.569-29.126 24.977-64.08 44.853-104.849 59.592-40.755 14.752-84.555 22.089-131.398 22.089-72.483-.014-139.606-19.605-201.345-58.8z"/></symbol>
  </defs>
</svg>
